<svg width="64" height="64" viewBox="0 0 64 64" fill="none" xmlns="http://www.w3.org/2000/svg" style="color: currentColor">
  <!-- Document body with diagonal-cut top-right corner -->
  <path d="M16 8h22l14 14v30a6 6 0 0 1-6 6H16a6 6 0 0 1-6-6V14a6 6 0 0 1 6-6z"
        stroke="currentColor" stroke-width="3" stroke-linejoin="round" fill="none"/>
  <!-- Folded-corner crease showing the dog-ear -->
  <path d="M38 8v8a6 6 0 0 0 6 6h8"
        stroke="currentColor" stroke-width="3" stroke-linejoin="round" fill="none"/>

  <!-- Plant stem rising from the page floor -->
  <path d="M32 52V36" stroke="currentColor" stroke-width="2.5" stroke-linecap="round"/>

  <!-- Left leaf -->
  <path d="M32 40 C 24 40, 18 36, 16 28 C 24 30, 30 34, 32 40 Z" fill="currentColor"/>
  <!-- Right leaf -->
  <path d="M32 36 C 40 36, 46 32, 48 24 C 40 26, 34 30, 32 36 Z" fill="currentColor"/>
</svg>
