<svg width="206" height="52" viewBox="0 0 206 52" fill="none" xmlns="http://www.w3.org/2000/svg" style="color: currentColor" shape-rendering="crispEdges">
  <g transform="translate(0 0) scale(0.8125)">
    <!-- Document body with diagonal-cut top-right corner -->
  <path d="M16 8h22l14 14v30a6 6 0 0 1-6 6H16a6 6 0 0 1-6-6V14a6 6 0 0 1 6-6z"
        stroke="currentColor" stroke-width="3" stroke-linejoin="round" fill="none"/>
  <!-- Folded-corner crease showing the dog-ear -->
  <path d="M38 8v8a6 6 0 0 0 6 6h8"
        stroke="currentColor" stroke-width="3" stroke-linejoin="round" fill="none"/>

  <!-- Plant stem rising from the page floor -->
  <path d="M32 52V36" stroke="currentColor" stroke-width="2.5" stroke-linecap="round"/>

  <!-- Left leaf -->
  <path d="M32 40 C 24 40, 18 36, 16 28 C 24 30, 30 34, 32 40 Z" fill="currentColor"/>
  <!-- Right leaf -->
  <path d="M32 36 C 40 36, 46 32, 48 24 C 40 26, 34 30, 32 36 Z" fill="currentColor"/>
  </g>
  <g fill="currentColor">
    <rect x="70" y="10" width="4" height="4"/><rect x="74" y="10" width="4" height="4"/><rect x="78" y="10" width="4" height="4"/><rect x="82" y="10" width="4" height="4"/><rect x="66" y="14" width="4" height="4"/><rect x="66" y="18" width="4" height="4"/><rect x="70" y="22" width="4" height="4"/><rect x="74" y="22" width="4" height="4"/><rect x="78" y="22" width="4" height="4"/><rect x="82" y="26" width="4" height="4"/><rect x="82" y="30" width="4" height="4"/><rect x="66" y="34" width="4" height="4"/><rect x="70" y="34" width="4" height="4"/><rect x="74" y="34" width="4" height="4"/><rect x="78" y="34" width="4" height="4"/><rect x="94" y="18" width="4" height="4"/><rect x="98" y="18" width="4" height="4"/><rect x="102" y="18" width="4" height="4"/><rect x="90" y="22" width="4" height="4"/><rect x="106" y="22" width="4" height="4"/><rect x="90" y="26" width="4" height="4"/><rect x="94" y="26" width="4" height="4"/><rect x="98" y="26" width="4" height="4"/><rect x="102" y="26" width="4" height="4"/><rect x="106" y="26" width="4" height="4"/><rect x="90" y="30" width="4" height="4"/><rect x="94" y="34" width="4" height="4"/><rect x="98" y="34" width="4" height="4"/><rect x="102" y="34" width="4" height="4"/><rect x="118" y="18" width="4" height="4"/><rect x="122" y="18" width="4" height="4"/><rect x="126" y="18" width="4" height="4"/><rect x="114" y="22" width="4" height="4"/><rect x="130" y="22" width="4" height="4"/><rect x="114" y="26" width="4" height="4"/><rect x="118" y="26" width="4" height="4"/><rect x="122" y="26" width="4" height="4"/><rect x="126" y="26" width="4" height="4"/><rect x="130" y="26" width="4" height="4"/><rect x="114" y="30" width="4" height="4"/><rect x="118" y="34" width="4" height="4"/><rect x="122" y="34" width="4" height="4"/><rect x="126" y="34" width="4" height="4"/><rect x="154" y="10" width="4" height="4"/><rect x="154" y="14" width="4" height="4"/><rect x="142" y="18" width="4" height="4"/><rect x="146" y="18" width="4" height="4"/><rect x="150" y="18" width="4" height="4"/><rect x="154" y="18" width="4" height="4"/><rect x="138" y="22" width="4" height="4"/><rect x="154" y="22" width="4" height="4"/><rect x="138" y="26" width="4" height="4"/><rect x="154" y="26" width="4" height="4"/><rect x="138" y="30" width="4" height="4"/><rect x="154" y="30" width="4" height="4"/><rect x="142" y="34" width="4" height="4"/><rect x="146" y="34" width="4" height="4"/><rect x="150" y="34" width="4" height="4"/><rect x="154" y="34" width="4" height="4"/><rect x="166" y="18" width="4" height="4"/><rect x="170" y="18" width="4" height="4"/><rect x="174" y="18" width="4" height="4"/><rect x="162" y="22" width="4" height="4"/><rect x="178" y="22" width="4" height="4"/><rect x="162" y="26" width="4" height="4"/><rect x="166" y="26" width="4" height="4"/><rect x="170" y="26" width="4" height="4"/><rect x="174" y="26" width="4" height="4"/><rect x="178" y="26" width="4" height="4"/><rect x="162" y="30" width="4" height="4"/><rect x="166" y="34" width="4" height="4"/><rect x="170" y="34" width="4" height="4"/><rect x="174" y="34" width="4" height="4"/><rect x="186" y="18" width="4" height="4"/><rect x="194" y="18" width="4" height="4"/><rect x="198" y="18" width="4" height="4"/><rect x="202" y="18" width="4" height="4"/><rect x="186" y="22" width="4" height="4"/><rect x="190" y="22" width="4" height="4"/><rect x="186" y="26" width="4" height="4"/><rect x="186" y="30" width="4" height="4"/><rect x="186" y="34" width="4" height="4"/>
  </g>
</svg>
